<?xml version="1.0" encoding="utf-8"?>
<!-- Generator: Adobe Illustrator 26.3.1, SVG Export Plug-In . SVG Version: 6.00 Build 0)  -->
<svg version="1.1" id="Layer_1" xmlns="http://www.w3.org/2000/svg" xmlns:xlink="http://www.w3.org/1999/xlink" x="0px" y="0px"
	 viewBox="0 0 24 24" style="enable-background:new 0 0 24 24;" xml:space="preserve">
<style type="text/css">
	.st0{fill:none;}
	.st1{fill:#6C757D;}
</style>
<g id="bounding_box">
	<rect class="st0" width="24" height="24"/>
</g>
<g id="design">
	<g>
		<path class="st1" d="M22.5,9.9L22.5,9.9z"/>
		<path class="st1" d="M21,13.3l-14,0l3.9,3.9c0.7,0.7,0.7,1.8,0,2.4c-0.7,0.7-1.8,0.7-2.4,0l-6.9-6.9c-0.2-0.2-0.3-0.3-0.4-0.5
			c0-0.1-0.1-0.2-0.1-0.2c-0.1-0.1-0.1-0.3-0.1-0.4s0-0.3,0.1-0.4c0-0.1,0-0.2,0.1-0.2c0.1-0.2,0.2-0.4,0.4-0.5l6.9-6.9
			C8.9,3.2,9.3,3,9.7,3c0.4,0,0.9,0.2,1.2,0.5c0.7,0.7,0.7,1.8,0,2.4L7,9.9l14.2,0L21,13.3z"/>
	</g>
</g>
<g id="design_00000076604452309944744370000014108106065685886613_">
	<g>
		<path class="st1" d="M9.9,9.9l11.2,0c0.9,0,1.7,0.8,1.7,1.7s-0.8,1.7-1.7,1.7l-11.3,0L9.9,9.9z"/>
		<path class="st1" d="M9.9,9.9L9.9,9.9z"/>
	</g>
</g>
</svg>
