<?xml version="1.0" encoding="utf-8"?>
<!-- Generator: Adobe Illustrator 26.3.1, SVG Export Plug-In . SVG Version: 6.00 Build 0)  -->
<svg version="1.1" id="Layer_1" xmlns="http://www.w3.org/2000/svg" xmlns:xlink="http://www.w3.org/1999/xlink" x="0px" y="0px"
	 viewBox="0 0 50 50" style="enable-background:new 0 0 50 50;" xml:space="preserve">
<style type="text/css">
	.st0{fill:none;}
	.st1{fill:none;stroke:#DC3545;stroke-width:2.5;stroke-linecap:round;stroke-linejoin:round;stroke-miterlimit:10;}
</style>
<line class="st0" x1="20.3" y1="24.9" x2="20.3" y2="25.5"/>
<path class="st0" d="M36.4,27.7c0,0.1,0.1,0.2,0.1,0.4c0.1,0.4,0.1,0.8,0.1,1.2c0,0.4-0.1,0.8-0.2,1.2c-0.1,0.4-0.2,0.8-0.3,1.1
	c-0.1,0.3-0.2,0.6-0.3,0.9c-0.2,0.5-0.4,0.9-0.7,1.4c-0.2,0.5-0.5,0.9-0.8,1.3c-0.3,0.4-0.6,0.9-0.9,1.2c0,0,0,0,0,0
	c-0.5,0.6-1.1,1.2-1.8,1.8c-0.2-0.2-0.5-0.5-0.7-0.7c0.6-0.5,1.2-1.1,1.8-1.8c0.3-0.4,0.7-0.8,1-1.3c0.5-0.7,0.9-1.5,1.2-2.3
	c0.1-0.2,0.2-0.5,0.3-0.8c0.1-0.3,0.2-0.6,0.3-1c0.1-0.3,0.1-0.7,0.1-1c0-0.4,0-0.7-0.1-1c0-0.2-0.1-0.4-0.2-0.6 M41.3,24.5
	c0.2,1.9,1.8,3.4,3.8,3.4c2.1,0,3.9-1.7,3.9-3.9c0-2.1-1.7-3.9-3.9-3.9c-2.1,0-3.8,1.7-3.9,3.8 M24.7,3.6v40.9h40.9V3.6H24.7z
	 M41.8,31.8c-0.1,0-0.3,0-0.4,0c0-0.4,0-0.9-0.1-1.3c0-0.3-0.1-0.6-0.1-0.8C41.6,30.3,41.8,31,41.8,31.8
	C41.8,31.8,41.8,31.8,41.8,31.8z M45.1,27.9c-2,0-3.6-1.5-3.8-3.4l0-0.5c0-2.1,1.8-3.8,3.9-3.8c2.1,0,3.9,1.7,3.9,3.9
	C49,26.2,47.2,27.9,45.1,27.9z M28.9,30.5c0.2-0.5,0.5-1,0.8-1.5c0.2-0.3,0.3-0.5,0.5-0.8c0,0,0,0,0,0c-0.1-0.4-0.2-0.9-0.3-1.3
	c0.2,0,0.4,0,0.6,0c0.3,0,0.7,0,1,0c0.3-0.2,0.6-0.4,0.9-0.6c0.4-0.2,0.9-0.3,1.4-0.3c0.3,0,0.5,0,0.8,0.1c0.5,0.1,1,0.4,1.3,0.7
	c0,0,0,0,0,0c0.2,0.2,0.4,0.5,0.5,0.8c0,0.1,0.1,0.2,0.1,0.4c0.1,0.4,0.1,0.8,0.1,1.2c0,0.4-0.1,0.8-0.2,1.2
	c-0.1,0.4-0.2,0.8-0.3,1.1c-0.1,0.3-0.2,0.6-0.3,0.9c-0.2,0.5-0.4,0.9-0.7,1.4c-0.2,0.5-0.5,0.9-0.8,1.3c-0.3,0.4-0.6,0.9-0.9,1.2
	c0,0,0,0,0,0c-0.5,0.6-1.1,1.2-1.8,1.8c-0.3,0.3-0.7,0.5-1,0.8c-0.1,0.4-0.1,0.8-0.1,1.1c0.5-0.1,1-0.1,1.5-0.1c0.3,0,0.7,0,1,0.1
	c0,0.1,0,0.1,0,0.2c0,0.3,0,0.6,0,0.8c0,0-0.1,0-0.1,0c-1-0.2-2.1,0-3.4,0.3c0-0.4,0-0.9,0.1-1.3c0-0.5,0.1-1,0.2-1.6
	c0.4-0.3,0.8-0.6,1.2-0.9c0.6-0.5,1.2-1.1,1.8-1.8c0.3-0.4,0.7-0.8,1-1.3c0.5-0.7,0.9-1.5,1.2-2.3c0.1-0.2,0.2-0.5,0.3-0.8
	c0.1-0.3,0.2-0.6,0.3-1c0.1-0.3,0.1-0.7,0.1-1c0-0.3,0-0.7-0.1-1c0-0.2-0.1-0.4-0.2-0.6c0-0.1-0.1-0.1-0.1-0.2
	c-0.2-0.2-0.4-0.4-0.7-0.4c-0.6-0.1-1.1-0.1-1.6,0.2c-0.3,0.1-0.5,0.3-0.8,0.5c-0.2,0.1-0.4,0.3-0.5,0.5c-0.4,0.4-0.7,0.8-0.9,1.2
	c0,0,0,0.1-0.1,0.1c-0.3,0.5-0.5,1-0.7,1.4c-0.5,1.1-0.9,2.3-1.2,3.3c0,0.1,0,0.2-0.1,0.2c-0.2-0.4-0.5-0.8-0.7-1.2
	C28.1,32.4,28.4,31.5,28.9,30.5z M41.3,30.5c0-0.3-0.1-0.6-0.1-0.8c-0.7-1.2-2-2-3.5-2h-1.4c0,0.1,0.1,0.2,0.1,0.4
	c0.1,0.4,0.1,0.8,0.1,1.2c0,0.4-0.1,0.8-0.2,1.2c-0.1,0.4-0.2,0.8-0.3,1.1c-0.1,0.3-0.2,0.6-0.3,0.9c-0.2,0.5-0.4,0.9-0.7,1.4
	c0,0,0.1,0,0.1,0h0.1c0.2,0,0.5,0,0.7,0.1c0.3,0.1,0.5,0.2,0.8,0.4c0.1-0.3,0.1-0.5,0.2-0.8c0.2-0.6,0.6-0.9,1.2-1
	c0.1,0,0.2,0,0.4,0c0.2,0,0.4,0,0.7,0.1c0.3,0.1,0.6,0.2,0.8,0.4c0-0.1,0.1-0.2,0.1-0.3c0.2-0.3,0.5-0.7,1.1-0.8c0,0,0.1,0,0.2,0
	C41.4,31.4,41.4,30.9,41.3,30.5z"/>
<path class="st1" d="M15.2,28.6c-1.1,0-2.3,0-3.3,0h-1.4c-0.3,0-0.5,0-0.5,0 M21.7,39.6c0,0,0-2.4,0-4.5c0-0.6,0-1.1,0-1.5
	c0-0.3,0-0.6,0-0.8c0-0.1,0-0.1,0-0.2c0-0.8-0.2-1.5-0.6-2.1c-0.7-1.2-2-2-3.5-2c-0.2,0-0.7,0-1.3,0 M40.1,22.6
	c-4,0-6.7-1.6-9.4-2.8c-0.4-0.2-0.9-0.4-1.4-0.6c0,0,0,0,0,0c-1.3-0.5-2.7-0.9-4.3-0.9c-1.9,0-3.5,0.5-5,1.2c0,0,0,0,0,0
	c-0.6,0.3-1.2,0.6-1.8,0.9c-2.3,1.1-4.7,2.2-8.2,2.2 M28.3,39.6c0,0,0-0.3,0-0.7c0-0.6,0-1.6,0-2.6c0-1.4,0-2.8,0-3.5
	c0,0,0-0.1,0-0.1c0-2,1.5-3.7,3.4-4.1c0.2,0,0.5-0.1,0.7-0.1c0.3,0,1.1,0,2.2,0c2.2,0,5.2,0,5.2,0"/>
<path class="st0" d="M41.3,23.9c-1.3,0-2.5,0-3.8,0"/>
<path class="st0" d="M41.3,24.5c-1.6,0.2-3.1,0.5-4.7,0.7"/>
<path d="M86.2-0.9c-1,0-2,0.1-3,0.1c-1,0.1-2,0.2-3.1,0.3c-2,0.2-3.9,0.5-5.6,0.8c-0.9,0.2-1.6,0.3-2.3,0.5
	c-0.6,0.1-1.2,0.3-1.7,0.4c-0.2,0.1-0.4,0.2-0.6,0.4c-0.2,0.2-0.3,0.4-0.5,0.6c-0.1,0.2-0.2,0.4-0.3,0.6c0,0.2,0,0.2,0.1,0.3
	c1-0.3,2-0.6,3.1-0.8c1.1-0.3,2.3-0.5,3.5-0.8c1.3-0.2,2.5-0.5,3.7-0.7c1.2-0.2,2.5-0.4,3.7-0.5C84.8,0,86-0.1,87.1-0.1
	c1.1-0.1,2.2-0.1,3.2,0c2,0.1,3.4,0.4,4.4,1C94,0.1,93-0.4,91.5-0.6C90-0.9,88.2-1,86.2-0.9z"/>
<path class="st1" d="M20.2,10.2c1.5-0.5,3.1-0.8,4.8-0.8c8.6,0,15.6,7,15.6,15.6s-7,15.6-15.6,15.6S9.4,33.6,9.4,25
	c0-4.8,2.2-9.2,5.7-12"/>
<path class="st1" d="M19.3,10.5c0.3-0.1,0.6-0.2,0.9-0.3"/>
<path class="st1" d="M18.6,10.8c0.2-0.1,0.4-0.2,0.6-0.3"/>
<path class="st1" d="M17.9,11.1c0.2-0.1,0.5-0.2,0.7-0.4"/>
<path class="st1" d="M16.1,12.2c0.6-0.4,1.2-0.8,1.8-1.1"/>
<path class="st1" d="M15.1,13c0.3-0.3,0.7-0.5,1-0.8"/>
</svg>
