<?xml version="1.0" encoding="utf-8"?>
<!-- Generator: Adobe Illustrator 26.3.1, SVG Export Plug-In . SVG Version: 6.00 Build 0)  -->
<svg version="1.1" id="Layer_1" xmlns="http://www.w3.org/2000/svg" xmlns:xlink="http://www.w3.org/1999/xlink" x="0px" y="0px"
	 viewBox="0 0 50 50" style="enable-background:new 0 0 50 50;" xml:space="preserve">
<style type="text/css">
	.st0{fill:none;}
	.st1{fill:#FFFFFF;}
	.st2{fill:none;stroke:#FFFFFF;stroke-width:2.5;stroke-linecap:round;stroke-linejoin:round;stroke-miterlimit:10;}
</style>
<path class="st0" d="M20.3,24.9c0.1-2.6,2.1-4.6,4.7-4.6c2.6,0,4.7,2.1,4.7,4.7s-2.1,4.7-4.7,4.7c-2.4,0-4.4-1.8-4.7-4.2 M0,0v50h50
	V0H0z M20.3,25.5l0-0.6c0.1-2.6,2.1-4.6,4.7-4.6c2.6,0,4.7,2.1,4.7,4.7s-2.1,4.7-4.7,4.7C22.6,29.7,20.6,27.9,20.3,25.5z"/>
<path class="st1" d="M25,1C11.8,1,1,11.8,1,25s10.8,24,24,24s24-10.8,24-24S38.2,1,25,1z M28.9,43.6c-0.3,0.1-0.6,0.1-0.8,0.2
	c0,0-0.1,0-0.1,0c-1,0.2-2,0.2-3,0.2c-1.5,0-3.1-0.2-4.5-0.5c-0.1,0-0.2,0-0.2,0c0,0-0.1,0-0.1,0c0,0,0,0-0.1,0
	c-7-1.9-12.4-7.7-13.8-14.9C6.1,27.3,6,26.2,6,25c0-1,0.1-2,0.2-3C7.7,13,15.5,6,25,6c9.8,0,17.9,7.5,18.9,17.1
	C44,23.7,44,24.4,44,25c0,1.1-0.1,2.2-0.3,3.3C42.4,35.9,36.5,42,28.9,43.6z"/>
<path class="st2" d="M43.4,22.2c-4.9,0-8.2-1.9-11.5-3.4c-0.5-0.3-1.1-0.5-1.7-0.7c0,0,0,0,0,0C28.6,17.4,26.9,17,25,17
	c-2.3,0-4.2,0.6-6.1,1.5c0,0,0,0,0,0c-0.7,0.3-1.5,0.7-2.2,1.1c-2.8,1.3-5.7,2.7-10.1,2.7 M29,43c0,0,0-6.5,0-8.3
	c0-2.8,2.3-5.2,5-5.2c1.2,0,9.1,0,9.1,0 M6.6,29.5c0,0,8.3,0,9.4,0c1.9,0,3.4,1,4.2,2.4c0.5,0.8,0.8,1.8,0.8,2.8c0,1.9,0,8.3,0,8.3"
	/>
<line class="st0" x1="20.3" y1="24.9" x2="20.3" y2="25.5"/>
<path class="st0" d="M20.3,24.9c-1.6,0-3.1,0-4.6,0"/>
<path class="st0" d="M20.3,25.5c-1.9,0.3-3.8,0.6-5.7,0.8"/>
<path class="st1" d="M43.9,23.1c-4.5-1-7.9-2.1-12-4.3c-0.2-0.1-0.4-0.2-0.6-0.3c-0.3-0.2-0.7-0.3-1-0.4c0,0,0,0,0,0
	c-1.1-0.2-2.2,0-2.9-0.3c-1.9-0.7-3-0.1-4.4,0c-1.5,0.2-3.1,0.4-4,0.6c0,0,0,0,0,0c-0.1,0-0.2,0.1-0.3,0.1c-0.6,0.2-1.3,0.6-1.9,1
	c-0.8,0.5-1.6,1.1-2.4,1.4c-2.3,1-5.4,2.7-7.6,1.2c-0.1-0.1-0.2-0.1-0.3-0.2c-2-1-2.8,1.2-2.7,3.2c0,0.8,0.1,1.7,0.6,2.4
	c0.5,0.6,1.4,0.8,2.2,0.9c0.2,0,0.5,0,0.7,0c3.6,0,7.4-0.6,10.8,0.7c0.7,0.2,1.3,0.6,1.8,1.2c0.3,0.4,0.5,1,0.6,1.5
	c0,0.3,0.1,0.7,0.1,1c0.2,3.4,0.2,6.8,0,10.1c-0.4,0.1-0.4,0.2-0.3,0.3c0,0,0,0,0.1,0c0,0,0.1,0,0.1,0c0.1,0,0.1,0,0.2,0
	c0,0,0,0,0,0c0.2,0.3,0.7,0.7,0.9,0.8c2.7,1.2,1.6,0.5,4.6,0.3c0.6,0,1.3-0.1,1.7-0.6c0.1-0.1,0.2-0.1,0.3-0.2c0,0,0.1,0,0.1,0
	c0.3,0,0.7,0,0.8-0.2c0,0,0.1-0.1,0.1-0.2V43c0-3.1-0.5-7.2,0.2-10.1c0.3-1.2,0.6-2.4,1.5-3.2c1-0.9,2.4-1,3.8-1.1
	c3.1-0.2,6.2-0.3,9.3-0.3H44c0.4-1.6,0.8-3.3,1.3-4.9C44.8,23.3,44.3,23.2,43.9,23.1z M25,29.7c-2.4,0-4.4-1.8-4.7-4.2l0-0.6
	c0.1-2.6,2.1-4.6,4.7-4.6c2.6,0,4.7,2.1,4.7,4.7S27.6,29.7,25,29.7z"/>
</svg>
