<?xml version="1.0" encoding="utf-8"?>
<!-- Generator: Adobe Illustrator 26.3.1, SVG Export Plug-In . SVG Version: 6.00 Build 0)  -->
<svg version="1.1" id="Layer_1" xmlns="http://www.w3.org/2000/svg" xmlns:xlink="http://www.w3.org/1999/xlink" x="0px" y="0px"
	 viewBox="0 0 24 24" style="enable-background:new 0 0 24 24;" xml:space="preserve">
<style type="text/css">
	.st0{fill:none;}
	.st1{fill:#FFFFFF;}
</style>
<g id="bounding_box">
	<rect class="st0" width="24" height="24"/>
</g>
<g id="design">
	<g>
		<path class="st1" d="M1.5,13.3L1.5,13.3z"/>
		<path class="st1" d="M3,9.9h14L13,6c-0.7-0.7-0.7-1.8,0-2.4c0.7-0.7,1.8-0.7,2.4,0l6.9,6.9c0.2,0.2,0.3,0.3,0.4,0.5
			c0,0.1,0.1,0.2,0.1,0.2c0.1,0.1,0.1,0.3,0.1,0.4s0,0.3-0.1,0.4c0,0.1,0,0.2-0.1,0.2c-0.1,0.2-0.2,0.4-0.4,0.5l-6.9,6.9
			c-0.3,0.3-0.8,0.5-1.2,0.5c-0.4,0-0.9-0.2-1.2-0.5c-0.7-0.7-0.7-1.8,0-2.4l3.9-3.9H2.8L3,9.9z"/>
	</g>
</g>
<g id="design_00000076604452309944744370000014108106065685886613_">
	<g>
		<path class="st1" d="M14.1,13.3H2.9c-0.9,0-1.7-0.8-1.7-1.7c0-0.9,0.8-1.7,1.7-1.7h11.3L14.1,13.3z"/>
		<path class="st1" d="M14.1,13.3L14.1,13.3z"/>
	</g>
</g>
</svg>
