<?xml version="1.0" encoding="utf-8"?>
<!-- Generator: Adobe Illustrator 24.0.2, SVG Export Plug-In . SVG Version: 6.00 Build 0)  -->
<svg version="1.1" xmlns="http://www.w3.org/2000/svg" xmlns:xlink="http://www.w3.org/1999/xlink" x="0px" y="0px"
	 viewBox="0 0 24 24" style="enable-background:new 0 0 24 24;" xml:space="preserve">
<style type="text/css">
	.st0{fill:none;}
	.st1{fill:#dc3545;}
</style>
<g id="bounding_box">
	<rect class="st0" width="24" height="24"/>
</g>
<g id="design">
	<g>
		<path class="st1" d="M20,4.06v15.87c0,0.83-0.45,1.5-1.08,1.83c-0.11,0.06-0.23,0.11-0.35,0.15C18.39,21.97,18.2,22,18,22
			c-0.36,0-0.72-0.1-1.06-0.32L12,18.5l-4.94,3.18C6.72,21.9,6.36,22,6,22c-0.2,0-0.39-0.03-0.57-0.09
			c-0.12-0.04-0.24-0.09-0.35-0.15C4.45,21.43,4,20.76,4,19.93V4.06C4,2.92,4.9,2,6,2h12C19.1,2,20,2.92,20,4.06z"/>
	</g>
</g>
</svg>
