<?xml version="1.0" encoding="utf-8"?>
<!-- Generator: Adobe Illustrator 24.0.2, SVG Export Plug-In . SVG Version: 6.00 Build 0)  -->
<svg version="1.1" xmlns="http://www.w3.org/2000/svg" xmlns:xlink="http://www.w3.org/1999/xlink" x="0px" y="0px"
	 viewBox="0 0 24 24" style="enable-background:new 0 0 24 24;" xml:space="preserve">
<style type="text/css">
	.st0{fill:none;}
	.st1{fill:#dc3545;}
</style>
<g id="bounding_box">
	<rect class="st0" width="24" height="24"/>
</g>
<g id="design">
	<g>
		<g>
			<path class="st1" d="M4.52,7.5l1.34,12.08C6.01,20.96,7.19,22,8.59,22h6.82c1.4,0,2.58-1.04,2.73-2.42L19.48,7.5H4.52z M11,18
				c0,0.55-0.45,1-1,1s-1-0.45-1-1v-6c0-0.55,0.45-1,1-1s1,0.45,1,1V18z M15,18c0,0.55-0.45,1-1,1s-1-0.45-1-1v-6c0-0.55,0.45-1,1-1
				s1,0.45,1,1V18z"/>
		</g>
		<path class="st1" d="M21,5c0,0.55-0.45,1-1,1H4C3.45,6,3,5.55,3,5s0.45-1,1-1h7V3c0-0.55,0.45-1,1-1s1,0.45,1,1v1h7
			C20.55,4,21,4.45,21,5z"/>
	</g>
</g>
</svg>
